<svg xmlns="http://www.w3.org/2000/svg" version="1.1" xmlns:xlink="http://www.w3.org/1999/xlink" xmlns:svgjs="http://svgjs.dev/svgjs" width="1000" height="356" viewBox="0 0 1000 356"><g transform="matrix(1,0,0,1,-0.6060606060606233,0.6084912362308614)"><svg viewBox="0 0 396 141" data-background-color="#ffffff" preserveAspectRatio="xMidYMid meet" height="356" width="1000" xmlns="http://www.w3.org/2000/svg" xmlns:xlink="http://www.w3.org/1999/xlink"><g id="tight-bounds" transform="matrix(1,0,0,1,0.2400000000000091,-0.2410035514285198)"><svg viewBox="0 0 395.52 141.482007102857" height="141.482007102857" width="395.52"><g><svg viewBox="0 0 683.3200453320947 244.43135999999998" height="141.482007102857" width="395.52"><g transform="matrix(1,0,0,1,0,30.362451946121695)"><svg viewBox="0 0 395.52 183.7064561077566" height="183.7064561077566" width="395.52"><g id="textblocktransform"><svg viewBox="0 0 395.52 183.7064561077566" height="183.7064561077566" width="395.52" id="textblock"><g><svg viewBox="0 0 395.52 183.7064561077566" height="183.7064561077566" width="395.52"><g transform="matrix(1,0,0,1,0,0)"><svg width="395.52" viewBox="3 -37.5 107.64 50" height="183.7064561077566" data-palette-color="#ff851b"><path d="M17.95 0L6.6 0Q5.1 0 4.05-1.05 3-2.1 3-3.6L3-3.6 3-11.35 7.65-10.3 7.65-6.45Q7.65-5.7 8.18-5.18 8.7-4.65 9.4-4.65L9.4-4.65 15.1-4.65Q15.85-4.65 16.38-5.18 16.9-5.7 16.9-6.45L16.9-6.45 16.9-15.25Q16.9-16 16.38-16.53 15.85-17.05 15.1-17.05L15.1-17.05 6.6-17.05Q5.1-17.05 4.05-18.1 3-19.15 3-20.65L3-20.65 3-31.4Q3-32.9 4.05-33.95 5.1-35 6.6-35L6.6-35 17.95-35Q19.45-35 20.5-33.95 21.55-32.9 21.55-31.4L21.55-31.4 21.55-26 16.9-27.1 16.9-28.55Q16.9-29.3 16.38-29.83 15.85-30.35 15.1-30.35L15.1-30.35 9.4-30.35Q8.7-30.35 8.18-29.83 7.65-29.3 7.65-28.55L7.65-28.55 7.65-23.5Q7.65-22.75 8.18-22.23 8.7-21.7 9.4-21.7L9.4-21.7 17.95-21.7Q19.45-21.7 20.5-20.65 21.55-19.6 21.55-18.1L21.55-18.1 21.55-3.6Q21.55-2.1 20.5-1.05 19.45 0 17.95 0L17.95 0ZM29.25 0L24.55 0 24.55-36.45 29.25-37.5 29.25-25 35-25Q36.5-25 37.55-23.93 38.6-22.85 38.6-21.35L38.6-21.35 38.6 0 33.9 0 33.9-18.5Q33.9-19.25 33.37-19.78 32.85-20.3 32.1-20.3L32.1-20.3 29.25-20.3 29.25 0ZM51.95 0L45.14 0Q43.59 0 42.55-1.07 41.49-2.15 41.49-3.65L41.49-3.65 41.49-21.35Q41.49-22.85 42.55-23.93 43.59-25 45.14-25L45.14-25 51.95-25Q53.45-25 54.49-23.93 55.55-22.85 55.55-21.35L55.55-21.35 55.55-3.65Q55.55-2.15 54.49-1.07 53.45 0 51.95 0L51.95 0ZM47.99-4.7L47.99-4.7 49.05-4.7Q49.8-4.7 50.34-5.23 50.89-5.75 50.89-6.5L50.89-6.5 50.89-18.5Q50.89-19.25 50.34-19.78 49.8-20.3 49.05-20.3L49.05-20.3 47.99-20.3Q47.24-20.3 46.72-19.78 46.2-19.25 46.2-18.5L46.2-18.5 46.2-6.5Q46.2-5.75 46.72-5.23 47.24-4.7 47.99-4.7ZM62.79 0L58.09 0 58.09-25 68.54-25Q70.04-25 71.12-23.93 72.19-22.85 72.19-21.35L72.19-21.35 72.19-15.9 67.49-16.95 67.49-18.45Q67.49-19.2 66.97-19.75 66.44-20.3 65.69-20.3L65.69-20.3 62.79-20.3 62.79 0ZM79.89 0L75.19 0 75.19-36.4 79.89-37.45 79.89-25 85.84-25 84.74-20.3 79.89-20.3 79.89 0ZM92.54 0L87.84 0 87.84-36.35 92.54-37.4 92.54 0ZM107.04 12.5L100.19 12.5Q98.64 12.5 97.59 11.45 96.54 10.4 96.54 8.85L96.54 8.85 96.54 3.4 101.24 4.5 101.24 6Q101.24 6.7 101.79 7.25 102.34 7.8 103.04 7.8L103.04 7.8 104.14 7.8Q104.84 7.8 105.39 7.25 105.94 6.7 105.94 6L105.94 6 105.94 0 100.19 0Q98.64 0 97.59-1.05 96.54-2.1 96.54-3.65L96.54-3.65 96.54-25 101.24-25 101.24-6.5Q101.24-5.8 101.79-5.25 102.34-4.7 103.04-4.7L103.04-4.7 105.94-4.7 105.94-25 110.64-25 110.64 8.85Q110.64 10.4 109.59 11.45 108.54 12.5 107.04 12.5L107.04 12.5Z" opacity="1" transform="matrix(1,0,0,1,0,0)" fill="#ff851b" class="wordmark-text-0" data-fill-palette-color="primary" id="text-0"></path></svg></g></svg></g></svg></g></svg></g><g transform="matrix(1,0,0,1,438.8886853320947,0)"><svg viewBox="0 0 244.43135999999998 244.43135999999998" height="244.43135999999998" width="244.43135999999998"><g data-palette-color="#ff851b"><rect width="66.8112384" height="244.43135999999998" fill="#ff851b" stroke="transparent" data-fill-palette-color="accent" x="0" fill-opacity="1"></rect><rect width="66.8112384" height="244.43135999999998" fill="#ff851b" stroke="transparent" data-fill-palette-color="accent" x="81.47711999999999" fill-opacity="0.75"></rect><rect width="66.8112384" height="244.43135999999998" fill="#ff851b" stroke="transparent" data-fill-palette-color="accent" x="162.95423999999997" fill-opacity="0.5"></rect></g></svg></g></svg></g><defs></defs></svg><rect width="395.52" height="141.482007102857" fill="none" stroke="none" visibility="hidden"></rect></g></svg></g></svg>